Coordinates
version=1
nRows=10
nColumns=40
inDegrees=yes

Units are S.I. units (second, meters, Newtons, ...)
If the header above contains a line with 'inDegrees', this indicates whether rotational values are in degrees (yes) or radians (no).

endheader
time	pelvis_tilt	pelvis_list	pelvis_rotation	pelvis_tx	pelvis_ty	pelvis_tz	hip_flexion_r	hip_adduction_r	hip_rotation_r	knee_angle_r	knee_angle_r_beta	ankle_angle_r	subtalar_angle_r	mtp_angle_r	hip_flexion_l	hip_adduction_l	hip_rotation_l	knee_angle_l	knee_angle_l_beta	ankle_angle_l	subtalar_angle_l	mtp_angle_l	lumbar_extension	lumbar_bending	lumbar_rotation	arm_flex_r	arm_add_r	arm_rot_r	elbow_flex_r	pro_sup_r	wrist_flex_r	wrist_dev_r	arm_flex_l	arm_add_l	arm_rot_l	elbow_flex_l	pro_sup_l	wrist_flex_l	wrist_dev_l
      1.60000000	      2.44624800	     -3.75778649	     -1.61283710	     -0.31980202	      1.05399965	     -1.03874676	     22.13376804	     -5.97504245	     -1.10403638	     23.37271874	      0.40793090	     -2.65567239	      0.00000000	      0.00000000	      6.64908291	     -1.68535584	     -4.18624661	     18.44401867	      0.32190885	     -3.70041819	      0.00000000	      0.00000000	     -7.52124851	     -0.91437075	      2.15216924	     89.86459782	    -17.13087663	     37.39778996	     27.34182554	     83.25753125	      0.00000000	      0.00000000	     89.78583871	    -40.32691836	     30.83467678	     34.19125857	     86.27741938	      0.00000000	      0.00000000
      1.60500000	      2.32862810	     -3.73814084	     -1.71592027	     -0.32005049	      1.05388885	     -1.03897313	     22.49530225	     -5.94537622	     -1.21729668	     22.65188126	      0.39534991	     -2.45908816	      0.00000000	      0.00000000	      6.77359357	     -1.64721878	     -4.23794073	     18.41295837	      0.32136675	     -3.72829415	      0.00000000	      0.00000000	     -7.41020310	     -0.95250019	      2.15248387	     89.86746814	    -17.06796804	     37.30626052	     27.43228820	     83.26839471	      0.00000000	      0.00000000	     89.78977274	    -40.35569745	     30.73980741	     34.14381561	     86.24064146	      0.00000000	      0.00000000
      1.61000000	      2.21256388	     -3.72820302	     -1.71281174	     -0.32031801	      1.05383973	     -1.03933591	     22.71759592	     -5.89303815	     -1.12942533	     21.67452311	      0.37829179	     -2.38574444	      0.00000000	      0.00000000	      6.93257244	     -1.61313231	     -4.23808821	     18.41262802	      0.32136098	     -3.79367831	      0.00000000	      0.00000000	     -7.30752294	     -0.97979329	      2.05776868	     89.87003171	    -17.06233135	     37.21953526	     27.56035086	     83.26985885	      0.00000000	      0.00000000	     89.79353784	    -40.33700572	     30.59863225	     34.06194969	     86.19529187	      0.00000000	      0.00000000
      1.61500000	      2.14083587	     -3.81091080	     -1.81082213	     -0.32035335	      1.05378651	     -1.03945207	     22.88614910	     -5.71075910	     -0.98860030	     20.68172335	      0.36096417	     -2.45593873	      0.00000000	      0.00000000	      7.01460245	     -1.69537551	     -4.28546336	     18.44871682	      0.32199085	     -3.78454902	      0.00000000	      0.00000000	     -7.22775108	     -0.92272076	      2.09618155	     89.87339102	    -16.99746100	     37.05422068	     27.56761771	     83.25926024	      0.00000000	      0.00000000	     89.79550692	    -40.29730937	     30.44327310	     33.96850065	     86.14914164	      0.00000000	      0.00000000
      1.62000000	      2.22784092	     -3.95950865	     -1.81226062	     -0.32045316	      1.05407765	     -1.03976441	     22.75752349	     -5.48123251	     -0.66319509	     19.47040525	      0.33982268	     -2.76336205	      0.00000000	      0.00000000	      6.97737653	     -1.83809908	     -4.26471643	     18.58126638	      0.32430428	     -3.78736694	      0.00000000	      0.00000000	     -7.33814406	     -0.77977968	      2.04264733	     89.87614922	    -16.91308750	     36.73829680	     27.55865044	     83.22608017	      0.00000000	      0.00000000	     89.80047561	    -40.18621856	     30.14607514	     33.77386031	     86.07647451	      0.00000000	      0.00000000
      1.62500000	      2.12516580	     -3.98604137	     -1.94396668	     -0.32056400	      1.05392083	     -1.03987992	     23.12888155	     -5.40170000	     -0.81843769	     18.83696600	      0.32876708	     -2.58775514	      0.00000000	      0.00000000	      7.06530855	     -1.86397848	     -4.35786928	     18.52232648	      0.32327558	     -3.76108951	      0.00000000	      0.00000000	     -7.23406425	     -0.77877381	      2.08010037	     89.87875641	    -16.86054212	     36.62737723	     27.63431837	     83.20897160	      0.00000000	      0.00000000	     89.80389791	    -40.20319521	     30.03669529	     33.73410623	     86.05457251	      0.00000000	      0.00000000
      1.63000000	      2.00277308	     -3.99658282	     -1.97114987	     -0.32077490	      1.05375646	     -1.04016649	     23.36860610	     -5.35037208	     -0.84970123	     17.89740275	      0.31236861	     -2.46463949	      0.00000000	      0.00000000	      7.20667488	     -1.85420053	     -4.40695327	     18.51147028	      0.32308611	     -3.76773721	      0.00000000	      0.00000000	     -7.11010384	     -0.77435456	      2.05674953	     89.88045203	    -16.82323168	     36.43436170	     27.69068859	     83.17686389	      0.00000000	      0.00000000	     89.80746143	    -40.12873168	     29.90907259	     33.66378182	     86.02766414	      0.00000000	      0.00000000
      1.63500000	      2.03181285	     -4.16128922	     -2.00154953	     -0.32094122	      1.05391971	     -1.04038163	     23.29320040	     -5.08653660	     -0.55411845	     16.63814974	      0.29039049	     -2.72585277	      0.00000000	      0.00000000	      7.26760962	     -2.03004895	     -4.35472167	     18.71764205	      0.32668448	     -3.74576433	      0.00000000	      0.00000000	     -7.16337350	     -0.61258724	      2.01132308	     89.88297803	    -16.69841378	     36.02792131	     27.65202761	     83.10882052	      0.00000000	      0.00000000	     89.81127573	    -40.03526025	     29.50756780	     33.44494570	     85.95184351	      0.00000000	      0.00000000
      1.64000000	      1.94494153	     -4.11728553	     -2.10688613	     -0.32140446	      1.05382551	     -1.04055655	     23.69824277	     -5.10028387	     -0.82179610	     16.08413873	      0.28072118	     -2.60230130	      0.00000000	      0.00000000	      7.37513675	     -1.96941278	     -4.40301398	     18.69438114	      0.32627850	     -3.74529997	      0.00000000	      0.00000000	     -7.12201666	     -0.67951300	      2.02317182	     89.88575525	    -16.66345352	     35.90460622	     27.77678439	     83.08510651	      0.00000000	      0.00000000	     89.81584692	    -40.05983277	     29.39056378	     33.45135646	     85.93148806	      0.00000000	      0.00000000
      1.64500000	      1.89674943	     -4.24805517	     -2.08341885	     -0.32161893	      1.05381128	     -1.04085750	     23.72376766	     -4.92863521	     -0.77258529	     14.87248403	      0.25957381	     -2.83218360	      0.00000000	      0.00000000	      7.53321402	     -2.10917390	     -4.41002012	     18.88914019	      0.32967769	     -3.77499444	      0.00000000	      0.00000000	     -7.10579330	     -0.55056350	      1.93430400	     89.88664983	    -16.58730505	     35.49053428	     27.83374441	     82.99543491	      0.00000000	      0.00000000	     89.81847073	    -39.95795375	     29.05269813	     33.34965323	     85.88068579	      0.00000000	      0.00000000
